# xmcd CD database file
#
# Track frame offsets:
#	182
#	11166
#	24812
#	35522
#	47139
#	61060
#	73761
#	87969
#	102616
#	115159
#	127678
#	141115
#	153838
#	164407
#	175941
#	187643
#	198133
#	210793
#	221660
#	233132
#	247221
#
# Disc length: 3444 seconds
#
# Revision: 0
# Processed by: cddbd v1.5.1PL0 Copyright (c) Steve Scherf et al.
# Submitted via: CDex 1.51
#
DISCID=150d7215
DTITLE=Django Reinhardt - Integrale Django Vol.9 Disc 1
DYEAR=1939
DGENRE=Jazz
TTITLE0=Montmartre
TTITLE1=Low Cotton
TTITLE2=Finesse
TTITLE3=I Know That You Know
TTITLE4=Solid Old Man
TTITLE5=My Melancholy Baby
TTITLE6=Japanese Sandman
TTITLE7=Tea For Two
TTITLE8=I Wonder Where My Baby Is Tonight
TTITLE9=Hungaria
TTITLE10=The Sheik
TTITLE11=Dream Ship
TTITLE12=I Can't Believe That Your In Love With Me
TTITLE13=Dark Town Strutters Ball
TTITLE14=Blues Of Yesterday
TTITLE15=Tiger Rag (radio)
TTITLE16=Stockholm
TTITLE17=Younger Generation
TTITLE18=I'll See You In My Dreams
TTITLE19=Echoes Of Spain
TTITLE20=Naguine
EXTD=YEAR: 1939
EXTT0=
EXTT1=
EXTT2=
EXTT3=
EXTT4=
EXTT5=
EXTT6=
EXTT7=
EXTT8=
EXTT9=
EXTT10=
EXTT11=
EXTT12=
EXTT13=
EXTT14=
EXTT15=
EXTT16=
EXTT17=
EXTT18=
EXTT19=
EXTT20=
PLAYORDER=
